<?xml version="1.0" encoding="iso-8859-1"?>

<svg fill="#000000" height="800px" width="800px" version="1.1" id="Layer_1" xmlns="http://www.w3.org/2000/svg" xmlns:xlink="http://www.w3.org/1999/xlink" 
	 viewBox="0 0 297 297" xml:space="preserve">
<g>
	<g>
		<g>
			<path d="M235.607,83.732c-1.809,0-3.625,0.081-5.439,0.244c-7.909-27.924-33.486-47.592-63.052-47.592
				c-31.28,0-58.08,22.019-64.231,52.535c9.374-4.291,19.762-6.674,30.638-6.674c33.452,0,62.357,22.424,70.999,54.16
				c2.284-0.229,4.572-0.345,6.848-0.345c32.538,0,59.859,22.687,67.025,53.068C290.392,177.461,297,161.838,297,145.124
				C297,111.273,269.459,83.732,235.607,83.732z"/>
			<path d="M211.37,149.26c-3.546,0-7.135,0.349-10.67,1.036c-1.726,0.342-3.527-0.033-4.984-1.029
				c-1.458-0.995-2.456-2.533-2.771-4.269c-5.213-28.712-30.204-49.553-59.422-49.553s-54.209,20.84-59.422,49.553
				c-0.315,1.736-1.313,3.274-2.77,4.27c-1.457,0.997-3.252,1.371-4.984,1.029c-3.535-0.687-7.125-1.036-10.67-1.036
				C24.976,149.261,0,174.237,0,204.937s24.976,55.678,55.677,55.678H211.37c30.701,0,55.677-24.977,55.677-55.678
				S242.071,149.26,211.37,149.26z"/>
		</g>
	</g>
</g>
</svg>